PathFileType  4	(X/Y/Z) C:\Users\antoi\Documents\MyRepositories\mobilecap\ResultsAnalysis
DataRate	CameraRate	NumFrames	NumMarkers	Units	OrigDataRate	OrigDataStartFrame	OrigNumFrames
100.0	100.0	4	51	mm	100.0	33	256
Frame#	Time	r_knee			r_shank_antsup			r_ankle			r_calc			r_5meta			r_toe			L_knee			L_shank_antsup			L_ankle			L_calc			L_5meta			L_toe			r_sh2			r_sh3			r_sh4			L_sh2			L_sh3			r_thigh1			r_thigh2			r_thigh3			r_thigh4			r_thigh5			L_thigh1			L_thigh2			L_thigh3			L_thigh4			r.ASIS			r.PSIS			L.ASIS			L.PSIS			C7			R_Shoulder			L_Shoulder			R_Sternum			L_Sternum			R_humerus			R_elbow_med			R_elbow_lat			R_forearm			R_wrist_radius			R_wrist_ulna			L_humerus			L_elbow_med			L_elbow_lat			L_forearm			L_wrist_radius			L_wrist_ulna			R_HJC			L_HJC			R_HJC_reg			L_HJC_reg			
		X1	Y1	Z1	X2	Y2	Z2	X3	Y3	Z3	X4	Y4	Z4	X5	Y5	Z5	X6	Y6	Z6	X7	Y7	Z7	X8	Y8	Z8	X9	Y9	Z9	X10	Y10	Z10	X11	Y11	Z11	X12	Y12	Z12	X13	Y13	Z13	X14	Y14	Z14	X15	Y15	Z15	X16	Y16	Z16	X17	Y17	Z17	X18	Y18	Z18	X19	Y19	Z19	X20	Y20	Z20	X21	Y21	Z21	X22	Y22	Z22	X23	Y23	Z23	X24	Y24	Z24	X25	Y25	Z25	X26	Y26	Z26	X27	Y27	Z27	X28	Y28	Z28	X29	Y29	Z29	X30	Y30	Z30	X31	Y31	Z31	X32	Y32	Z32	X33	Y33	Z33	X34	Y34	Z34	X35	Y35	Z35	X36	Y36	Z36	X37	Y37	Z37	X38	Y38	Z38	X39	Y39	Z39	X40	Y40	Z40	X41	Y41	Z41	X42	Y42	Z42	X43	Y43	Z43	X44	Y44	Z44	X45	Y45	Z45	X46	Y46	Z46	X47	Y47	Z47	X48	Y48	Z48	X49	Y49	Z49	X50	Y50	Z50	X51	Y51	Z51	

33	0.32000000	-1173.70754	803.00235	-432.27178	-1151.43473	703.58974	-440.56628	-1272.30488	398.94485	-445.10026	-1338.09769	364.40086	-489.44690	-1150.79243	351.68328	-415.33523	-1123.04302	382.35037	-470.81148	-1170.37544	806.29318	-717.85850	-1143.77672	715.70411	-704.69757	-1264.41933	403.80998	-704.80300	-1336.91306	360.18336	-662.07493	-1157.54316	351.10377	-741.07509	-1113.86661	377.06928	-683.96360	-1177.47604	593.12672	-442.29901	-1211.53180	715.82171	-396.13788	-1243.67412	604.96879	-393.41848	-1218.49186	744.30236	-747.21926	-1247.47995	625.84772	-752.69513	-1112.98806	1078.77894	-408.09738	-1109.21015	968.95036	-425.24078	-1159.63964	939.07684	-390.61630	-1222.99118	1069.13410	-386.63527	-1212.65438	955.13077	-404.65145	-1086.76387	1048.72080	-732.64017	-1084.93316	911.07687	-705.51587	-1188.45839	1041.71437	-774.44645	-1187.27104	910.86155	-741.79006	-1075.76994	1265.39589	-448.48156	-1273.81301	1324.57879	-536.60390	-1067.25704	1267.44555	-702.62006	-1268.05108	1324.92650	-633.23962	-1203.85722	1774.17571	-573.91485	-1141.89059	1740.77916	-408.18402	-1125.36377	1741.47355	-726.30564	-1081.64393	1694.61578	-546.09956	-1082.61615	1697.96757	-592.17018	-1113.97803	1606.97182	-355.40016	-1225.69384	1417.11583	-392.05202	-1201.03524	1426.26279	-335.08904	-1155.75242	1355.63708	-309.39057	-1115.99172	1188.23534	-329.70820	-1153.99108	1191.76805	-297.29089	-1103.37352	1600.53877	-788.52099	-1197.03816	1409.51894	-744.46883	-1172.77084	1421.75228	-821.08211	-1131.50159	1359.48526	-839.22895	-1106.21532	1180.62442	-835.21614	-1144.14197	1191.39384	-869.09589	-1169.03984	1189.78200	-478.87900	-1160.03538	1191.74576	-668.21737	-1158.53820	1199.04001	-489.60956	-1148.53878	1199.63891	-657.13689	
34	0.33000000	-1172.17126	802.55576	-432.50419	-1150.00235	703.06556	-440.88575	-1272.30810	398.92617	-445.19431	-1338.10975	364.41422	-489.46227	-1150.82161	351.60447	-415.40065	-1123.07428	382.37788	-470.82285	-1168.00764	805.55472	-717.44557	-1141.49464	714.90455	-704.44964	-1264.37914	403.79398	-704.83350	-1336.92500	360.21596	-662.07948	-1157.54791	351.12415	-741.06432	-1113.87677	377.08528	-684.02490	-1176.59452	592.76384	-442.39188	-1210.14323	715.36568	-396.59817	-1242.55524	604.78260	-393.53391	-1215.91644	744.04052	-747.34065	-1245.72873	625.70860	-752.83220	-1111.96361	1078.62897	-408.06591	-1108.11476	968.74181	-425.39912	-1158.56372	938.63705	-390.83114	-1222.14824	1068.55570	-386.90351	-1211.44780	954.64146	-404.76081	-1085.23701	1048.39432	-732.49443	-1083.07887	910.90937	-705.47738	-1186.29099	1040.67744	-772.98820	-1185.38277	910.20240	-741.80512	-1074.99897	1264.92809	-448.33412	-1272.83206	1324.49467	-536.74466	-1066.42200	1266.94594	-702.60733	-1266.83742	1324.68850	-633.07493	-1200.08137	1774.08522	-573.96950	-1138.53267	1740.21064	-408.13064	-1121.65063	1740.77629	-725.97431	-1078.43078	1693.78112	-545.91159	-1079.43630	1697.03555	-592.17908	-1111.71581	1606.33434	-355.12943	-1224.34237	1417.29521	-391.83922	-1200.11088	1426.28963	-334.66994	-1155.48151	1355.35360	-308.81412	-1116.87704	1187.71916	-328.44499	-1155.08269	1191.53457	-296.39656	-1100.61184	1599.89193	-788.48892	-1195.75748	1409.68206	-744.65311	-1171.59586	1421.84865	-821.46216	-1131.10936	1359.19495	-839.72541	-1108.08653	1179.89735	-836.34516	-1146.02333	1191.32958	-870.22636	-1168.33251	1189.47665	-478.81015	-1159.24608	1191.38399	-668.14519	-1158.08916	1198.83554	-489.61306	-1147.64688	1199.16865	-657.20348	
35	0.34000000	-1170.59443	801.93719	-432.89176	-1148.52680	702.52085	-441.25816	-1272.31305	398.90456	-445.33879	-1338.12135	364.42256	-489.49641	-1150.84235	351.57511	-415.45261	-1123.09634	382.40136	-470.82413	-1165.52611	804.85343	-717.19149	-1139.13051	714.08705	-704.09281	-1264.32830	403.78706	-704.84139	-1336.94047	360.25054	-662.06964	-1157.54839	351.16528	-741.04967	-1113.87187	377.10037	-684.04662	-1175.54931	592.31663	-442.69671	-1208.99921	714.67825	-397.31554	-1241.33996	604.97720	-393.76329	-1213.36776	743.68257	-747.16189	-1243.86424	625.61869	-753.16818	-1109.80479	1078.51852	-407.56813	-1106.99679	968.40525	-425.40489	-1157.24729	938.21936	-390.93239	-1221.18935	1067.89917	-387.34522	-1210.17760	954.11656	-404.93065	-1083.73465	1048.01677	-732.21951	-1081.22559	910.61488	-705.28199	-1184.24007	1039.28449	-772.03212	-1183.45554	909.43983	-741.80401	-1074.20823	1264.33965	-448.29433	-1271.83114	1324.37176	-536.78949	-1065.60844	1266.35732	-702.52687	-1265.64054	1324.42719	-632.93925	-1196.19799	1773.97510	-574.05269	-1134.99015	1739.57174	-408.14590	-1117.56689	1740.20015	-725.80968	-1075.06475	1692.85852	-545.83259	-1075.97016	1696.08773	-591.79712	-1109.24900	1605.59090	-355.07307	-1222.75361	1417.39185	-391.74897	-1199.08369	1426.20629	-334.31856	-1155.10880	1355.03698	-308.02312	-1117.72956	1187.17247	-327.18763	-1156.15508	1191.20039	-295.62265	-1097.66498	1599.19228	-788.60932	-1194.25329	1409.91473	-744.95853	-1170.18545	1421.94778	-821.88786	-1130.53238	1358.92700	-840.37981	-1109.97516	1179.12896	-837.39613	-1147.88134	1191.17631	-871.18378	-1167.64042	1189.08780	-478.75155	-1158.51027	1190.96470	-668.08468	-1157.61050	1198.59542	-489.66578	-1146.81161	1198.68884	-657.20771	
36	0.35000000	-1168.82260	801.29113	-433.29657	-1146.95190	701.92522	-441.58770	-1272.32722	398.88596	-445.44231	-1338.12704	364.42703	-489.50711	-1150.88586	351.69938	-415.53955	-1123.11370	382.45181	-470.81798	-1162.87802	804.24991	-717.10698	-1136.72652	713.15994	-703.61270	-1264.27439	403.77948	-704.83471	-1336.95906	360.27627	-662.04393	-1157.55501	351.21038	-741.02801	-1113.89145	377.12482	-683.98121	-1174.48116	591.90405	-443.05364	-1207.62796	714.37751	-397.64479	-1240.32882	605.22202	-394.00294	-1210.77117	743.17517	-746.66260	-1241.92400	625.49121	-753.39201	-1107.73508	1078.20305	-407.10007	-1105.76274	968.02879	-425.32146	-1155.70319	937.75420	-390.98882	-1220.10145	1067.15222	-387.60139	-1208.85791	953.46644	-405.18074	-1082.35644	1047.62085	-732.02908	-1079.31894	910.14866	-704.87892	-1182.94232	1038.10776	-772.01648	-1181.44206	908.61689	-741.62316	-1073.41410	1263.63360	-448.26148	-1270.77609	1324.24465	-536.74549	-1064.66001	1265.60539	-702.46105	-1264.21890	1324.14720	-632.67682	-1192.15020	1773.78383	-574.04714	-1131.30149	1738.89410	-408.13402	-1113.14506	1739.78600	-725.75520	-1071.57313	1691.80746	-545.80020	-1072.34583	1695.02931	-591.36088	-1106.60126	1604.74399	-354.97919	-1221.17470	1417.50140	-391.50545	-1197.96441	1426.12257	-333.85684	-1154.62118	1354.69901	-307.20828	-1118.56136	1186.51911	-325.99491	-1157.15680	1190.80032	-294.84430	-1094.51314	1598.36259	-788.62494	-1192.47247	1410.01975	-745.04661	-1168.60011	1421.91848	-822.20996	-1129.75143	1358.51238	-841.06870	-1111.80944	1178.25937	-838.33765	-1149.53343	1190.92783	-871.90787	-1166.92146	1188.61774	-478.64919	-1157.74140	1190.46639	-667.98023	-1157.23953	1198.26031	-489.87726	-1145.78319	1198.08753	-657.35738	
